<?xml version="1.0" encoding="UTF-8" standalone="no"?>
<svg
   xmlns:dc="http://purl.org/dc/elements/1.1/"
   xmlns:cc="http://creativecommons.org/ns#"
   xmlns:rdf="http://www.w3.org/1999/02/22-rdf-syntax-ns#"
   xmlns:svg="http://www.w3.org/2000/svg"
   xmlns="http://www.w3.org/2000/svg"
   xmlns:sodipodi="http://sodipodi.sourceforge.net/DTD/sodipodi-0.dtd"
   xmlns:inkscape="http://www.inkscape.org/namespaces/inkscape"
   version="1.0"
   width="1149.000000pt"
   height="1280.000000pt"
   viewBox="0 0 1149.000000 1280.000000"
   preserveAspectRatio="xMidYMid meet"
   id="svg136"
   sodipodi:docname="2028384.svg"
   inkscape:version="0.92.3 (2405546, 2018-03-11)">
  <metadata
     id="metadata142">
    <rdf:RDF>
      <cc:Work
         rdf:about="">
        <dc:format>image/svg+xml</dc:format>
        <dc:type
           rdf:resource="http://purl.org/dc/dcmitype/StillImage" />
      </cc:Work>
    </rdf:RDF>
  </metadata>
  <defs
     id="defs140" />
  <sodipodi:namedview
     pagecolor="#ffffff"
     bordercolor="#666666"
     borderopacity="1"
     objecttolerance="10"
     gridtolerance="10"
     guidetolerance="10"
     inkscape:pageopacity="0"
     inkscape:pageshadow="2"
     inkscape:window-width="1853"
     inkscape:window-height="1025"
     id="namedview138"
     showgrid="false"
     inkscape:zoom="0.13828125"
     inkscape:cx="766"
     inkscape:cy="853.33333"
     inkscape:window-x="67"
     inkscape:window-y="27"
     inkscape:window-maximized="1"
     inkscape:current-layer="svg136" />
  <g
     transform="translate(0.000000,1280.000000) scale(0.100000,-0.100000)"
     fill="#000000"
     stroke="none"
     id="g134"
     style="fill:#ffffff">
    <path
       d="M9856 12785 c-109 -21 -199 -66 -266 -134 -63 -64 -199 -301 -224 -391 -59 -208 -32 -468 64 -630 65 -109 73 -149 44 -218 -21 -50 -56 -86 -138 -139 -65 -42 -69 -46 -51 -59 53 -39 130 -25 201 37 25 21 56 42 69 45 40 10 105 -29 221 -134 143 -128 202 -174 288 -224 39 -22 81 -50 93 -61 14 -13 46 -23 84 -29 34 -4 125 -24 203 -44 119 -30 164 -37 287 -41 177 -7 261 8 389 69 69 33 100 56 165 122 44 44 93 105 108 133 194 363 86 863 -267 1231 -147 154 -263 235 -539 377 l-182 94 -235 5 c-185 5 -252 2 -314 -9z m256 -75 c129 -12 267 -42 393 -84 154 -52 230 -93 476 -259 20 -14 58 -55 85 -92 27 -37 93 -126 146 -199 60 -79 110 -159 128 -202 114 -273 52 -644 -139 -835 -113 -112 -233 -152 -461 -151 -153 0 -283 22 -426 73 -453 160 -767 476 -876 881 -29 110 -32 338 -5 438 65 242 235 402 457 430 80 11 114 11 222 0z"
       id="path2"
       style="fill:#ffffff" />
    <path
       d="M9623 11923 c-36 -13 1 -115 83 -228 182 -253 431 -447 595 -462 98 -9 146 37 163 159 7 44 5 48 -21 64 -111 69 -203 135 -298 215 -108 91 -157 121 -182 112 -22 -9 -82 18 -145 64 -59 44 -167 85 -195 76z"
       id="path4"
       style="fill:#ffffff" />
    <path
       d="M9142 11307 c-42 -45 -55 -95 -54 -212 1 -179 49 -324 132 -399 23 -21 44 -35 47 -32 3 3 -16 56 -41 119 -62 154 -59 197 13 197 27 0 26 16 -3 54 -53 71 -59 93 -52 198 8 107 0 120 -42 75z"
       id="path6"
       style="fill:#ffffff" />
    <path
       d="M8924 10677 c-76 -50 -194 -168 -194 -195 0 -67 127 25 211 154 23 36 40 67 37 69 -3 3 -27 -10 -54 -28z"
       id="path8"
       style="fill:#ffffff" />
    <path
       d="M9310 10580 c0 -17 142 -117 228 -159 100 -50 110 -67 86 -149 -22 -78 -62 -154 -223 -420 -141 -236 -229 -419 -238 -496 l-4 -41 25 29 c13 16 59 93 102 170 42 78 133 236 202 351 68 116 154 266 190 334 37 68 76 130 87 137 12 8 53 20 93 27 124 24 112 39 -46 61 -131 18 -184 35 -354 111 -127 56 -148 63 -148 45z"
       id="path10"
       style="fill:#ffffff" />
    <path
       d="M10130 10522 c-71 -71 -86 -102 -50 -102 33 0 115 46 144 81 33 39 32 82 -2 87 -17 3 -40 -14 -92 -66z"
       id="path12"
       style="fill:#ffffff" />
    <path
       d="M8655 10421 c-31 -19 -156 -126 -320 -273 -53 -48 -133 -113 -178 -145 -45 -31 -122 -89 -172 -128 -49 -39 -110 -83 -135 -96 -40 -21 -45 -29 -48 -62 -4 -48 13 -55 66 -28 119 61 720 580 804 695 42 59 37 71 -17 37z"
       id="path14"
       style="fill:#ffffff" />
    <path
       d="M9250 10225 c-6 -8 -12 -31 -12 -52 0 -73 88 -111 121 -52 20 36 7 75 -32 99 -38 24 -60 25 -77 5z"
       id="path16"
       style="fill:#ffffff" />
    <path
       d="M9120 10125 c-7 -9 -9 -26 -5 -47 18 -81 67 -131 124 -126 34 3 36 6 39 40 3 31 -3 44 -35 79 -21 23 -52 48 -70 56 -40 16 -38 16 -53 -2z"
       id="path18"
       style="fill:#ffffff" />
    <path
       d="M9010 9976 c-12 -14 -20 -32 -17 -40 8 -21 107 -97 121 -93 6 2 12 27 14 55 3 44 -1 56 -22 77 -32 32 -66 32 -96 1z"
       id="path20"
       style="fill:#ffffff" />
    <path
       d="M8947 9873 c-18 -17 -5 -64 26 -97 46 -48 117 -62 117 -23 0 20 -67 95 -101 112 -32 17 -33 17 -42 8z"
       id="path22"
       style="fill:#ffffff" />
    <path
       d="M7569 9740 c-24 -16 -57 -30 -72 -30 -58 0 -109 -45 -263 -230 -43 -52 -170 -189 -281 -303 -263 -271 -362 -401 -363 -479 0 -31 -23 -58 -51 -58 -88 0 -339 -417 -379 -629 -9 -49 2 -91 24 -91 22 0 33 21 56 105 41 157 113 282 240 418 43 47 116 136 163 198 86 115 107 140 316 375 62 71 178 215 257 320 79 104 152 198 163 208 19 17 22 17 44 3 28 -18 37 -58 37 -158 0 -183 104 -398 278 -581 193 -202 439 -328 674 -345 48 -3 88 -10 88 -16 0 -10 -417 -2 -492 9 -110 17 44 -62 187 -97 125 -30 284 -32 340 -4 36 18 40 24 43 62 l3 41 63 11 c87 15 96 14 96 -9 0 -23 -212 -247 -255 -270 -21 -11 -30 -12 -43 -2 -60 42 -173 75 -511 149 -81 18 -95 8 -59 -43 39 -55 30 -64 -64 -64 -95 0 -99 -12 -18 -52 109 -55 195 -69 392 -66 109 1 181 -1 188 -8 6 -6 6 -21 0 -44 -18 -61 -114 -233 -141 -253 -34 -24 -133 -33 -594 -52 -198 -9 -502 -23 -675 -32 -237 -12 -515 -16 -1125 -17 -862 0 -999 5 -1355 49 -325 41 -604 72 -1065 120 -654 68 -1001 114 -1220 160 -60 13 -240 47 -400 75 -368 65 -434 78 -745 151 -286 68 -398 103 -515 162 -225 112 -353 252 -363 397 -5 63 16 122 64 186 54 71 129 94 664 208 477 101 502 105 875 131 127 9 284 23 350 31 306 36 380 44 525 54 85 5 292 15 460 20 168 5 343 14 390 20 262 30 409 33 1860 40 1661 7 1614 5 1545 70 -23 21 -37 24 -172 31 -541 27 -2851 16 -3193 -15 -85 -8 -281 -17 -435 -21 -445 -9 -566 -19 -1243 -94 -432 -49 -523 -61 -750 -107 -234 -47 -416 -94 -607 -159 -274 -92 -382 -150 -441 -239 -89 -135 -83 -325 17 -516 83 -160 202 -274 384 -367 60 -31 150 -81 200 -111 49 -30 158 -87 240 -127 247 -120 412 -234 568 -390 156 -155 264 -327 319 -505 53 -171 120 -377 144 -444 45 -124 83 -291 194 -846 60 -300 120 -583 135 -630 65 -218 102 -407 130 -680 9 -85 27 -227 41 -315 43 -272 54 -406 54 -670 0 -327 15 -602 40 -745 11 -63 20 -146 20 -183 0 -37 12 -120 26 -183 l27 -116 -36 -92 c-49 -123 -50 -131 -33 -163 8 -15 94 -107 193 -203 148 -145 193 -183 266 -225 49 -27 128 -74 175 -104 184 -114 336 -170 743 -276 140 -36 299 -80 354 -98 l99 -32 -49 -9 c-92 -17 -528 24 -735 69 -88 19 -277 31 -344 21 -88 -14 -93 -51 -11 -86 123 -53 760 -189 966 -207 74 -6 115 -15 135 -27 25 -17 26 -20 10 -32 -68 -49 -502 -16 -826 62 -177 43 -347 74 -407 74 -25 0 -76 -7 -114 -17 l-68 -16 -88 41 c-49 22 -115 48 -148 57 -125 36 -274 135 -361 240 -21 27 -57 84 -79 129 -31 64 -47 84 -72 95 -45 20 -63 71 -63 174 0 99 22 231 48 290 22 48 83 107 200 191 85 61 117 98 108 122 -8 21 -61 17 -109 -7 -124 -63 -223 -153 -333 -298 -143 -192 -200 -376 -161 -528 56 -215 230 -384 597 -578 171 -91 200 -112 246 -175 33 -46 38 -49 102 -59 95 -17 214 -50 232 -65 22 -20 88 -51 150 -71 30 -10 116 -44 190 -75 74 -31 162 -64 195 -73 33 -9 179 -28 325 -42 275 -26 392 -40 620 -74 348 -53 764 -75 1355 -75 492 0 665 10 975 54 330 48 536 95 1080 250 332 95 665 229 815 328 33 22 98 74 145 117 47 42 149 128 228 192 78 63 153 129 166 146 59 79 100 199 123 362 l15 110 -178 174 c-198 192 -288 271 -310 271 -26 0 -15 -21 47 -88 75 -83 93 -114 93 -172 0 -62 -20 -94 -124 -205 -96 -102 -116 -130 -100 -140 17 -10 76 22 144 79 71 61 101 76 146 76 64 0 55 -17 -90 -180 -56 -63 -115 -137 -131 -165 -28 -49 -38 -108 -19 -120 36 -22 155 94 263 257 76 114 116 98 83 -32 -41 -158 -119 -291 -199 -341 -29 -17 -101 -68 -162 -113 -133 -98 -206 -145 -345 -219 -220 -117 -476 -214 -640 -242 -52 -9 -156 -34 -231 -56 -183 -53 -684 -166 -811 -184 -237 -32 -416 -40 -908 -40 -503 0 -613 6 -737 41 -52 14 -69 36 -37 48 8 3 158 10 332 16 174 6 434 15 577 21 383 15 426 31 139 50 -159 11 -176 11 -280 -10 -186 -35 -427 -23 -568 29 -88 34 -95 63 -22 95 33 14 33 14 -42 34 -24 7 -49 20 -57 29 -7 9 -26 32 -41 51 -54 66 -95 76 -307 77 -103 1 -190 4 -194 7 -18 19 73 74 167 101 30 9 91 20 135 26 144 18 125 35 -98 86 -252 57 -291 72 -235 90 12 3 114 9 227 13 171 6 201 9 179 19 -16 6 -28 18 -28 27 0 34 45 37 470 26 464 -13 716 -5 925 28 72 11 272 41 445 66 399 58 543 87 705 140 309 101 756 317 724 350 -4 3 -38 -9 -75 -28 -38 -19 -116 -51 -174 -72 -58 -21 -144 -57 -193 -81 -119 -60 -221 -100 -358 -139 -139 -40 -244 -55 -237 -34 7 23 125 80 258 125 69 23 152 54 185 68 33 15 91 36 128 46 50 14 80 30 111 58 23 21 85 67 137 102 52 35 130 91 174 125 44 35 112 83 150 108 89 58 122 93 180 195 87 152 86 149 95 492 7 252 14 346 39 540 35 259 77 551 115 792 14 87 37 262 51 390 14 128 33 260 41 293 20 76 37 146 64 262 12 51 48 179 82 285 l60 193 9 185 c9 203 15 231 108 530 58 187 83 252 115 295 48 64 77 126 127 270 85 247 228 594 313 763 19 37 55 96 80 131 46 65 56 91 34 91 -16 0 -158 -148 -219 -228 -67 -88 -103 -167 -189 -412 -77 -217 -128 -340 -257 -615 -143 -304 -174 -398 -228 -705 -14 -80 -34 -185 -45 -235 -11 -49 -24 -139 -30 -200 -18 -179 -38 -288 -79 -434 -56 -196 -77 -309 -106 -553 -29 -244 -32 -263 -51 -338 -7 -30 -20 -158 -29 -285 -9 -126 -27 -302 -40 -390 -37 -245 -46 -357 -53 -650 l-7 -270 -32 -65 c-34 -69 -217 -287 -313 -373 -102 -92 -299 -209 -484 -287 -95 -41 -268 -104 -481 -175 -281 -95 -1040 -180 -1358 -152 -138 12 -234 3 -417 -39 -157 -36 -234 -35 -325 4 -96 42 -155 57 -335 87 -162 28 -401 87 -630 155 -74 22 -207 55 -295 74 -88 19 -196 46 -240 59 -296 89 -397 123 -453 147 -90 42 -216 126 -304 206 -42 38 -96 87 -121 109 -33 29 -47 49 -50 75 -22 154 -36 217 -85 399 l-56 206 -1 335 c-1 311 -4 354 -34 600 -22 183 -35 344 -41 520 -8 243 -10 259 -38 345 -17 50 -47 164 -67 255 -21 91 -55 224 -75 295 -59 200 -69 245 -80 356 -19 188 -86 550 -205 1097 -54 250 -68 292 -179 531 -106 227 -173 344 -255 446 -76 95 -105 141 -96 155 3 5 28 10 55 10 50 0 472 -79 567 -106 51 -14 53 -16 53 -49 0 -54 18 -59 270 -75 149 -10 225 -6 215 10 -2 4 -46 15 -97 24 -193 36 -238 48 -324 90 -101 49 -153 67 -384 131 -91 26 -228 68 -305 95 -223 77 -376 130 -430 146 -27 9 -130 54 -229 101 -98 47 -196 91 -218 99 -58 20 -139 71 -273 173 -140 107 -225 186 -225 212 0 33 32 21 140 -52 119 -81 244 -146 340 -177 160 -53 726 -179 999 -223 102 -16 299 -52 436 -79 541 -107 798 -145 1255 -185 476 -42 1027 -98 1295 -130 447 -55 2091 -36 2635 30 139 17 334 31 615 45 116 6 233 12 260 15 204 19 298 31 505 65 129 21 307 48 395 60 449 61 966 178 1217 275 168 66 248 82 248 51 0 -33 -170 -160 -300 -226 -108 -54 -520 -173 -850 -245 -253 -56 -343 -82 -334 -97 8 -13 140 -4 359 23 217 28 438 72 565 114 58 19 151 46 208 60 125 31 182 56 320 138 59 35 145 86 190 113 212 124 411 330 479 494 24 59 31 157 13 190 -6 11 -45 45 -88 76 -42 32 -117 94 -167 139 -220 199 -271 224 -735 359 -124 36 -262 77 -306 90 -131 40 -394 58 -394 27 0 -15 48 -30 272 -85 470 -116 823 -251 1047 -400 106 -71 187 -149 222 -217 34 -65 33 -149 -4 -212 -51 -86 -171 -161 -218 -136 -36 19 -19 57 58 140 31 32 40 49 28 49 -18 0 -113 -57 -185 -111 -124 -92 -302 -204 -405 -255 -132 -65 -370 -128 -655 -174 -74 -12 -234 -39 -355 -60 -121 -21 -296 -50 -390 -65 -93 -15 -235 -38 -315 -52 -197 -35 -285 -40 -293 -18 -15 37 43 110 302 380 188 195 262 285 301 362 23 47 70 263 70 324 0 21 -5 41 -11 45 -21 12 -67 -49 -104 -137 -82 -199 -217 -273 -450 -247 -502 55 -910 382 -942 755 -12 146 33 266 143 383 l66 70 -54 0 c-44 0 -63 -6 -99 -30z m-4694 -7989 c33 -16 92 -56 130 -90 93 -83 164 -117 395 -190 369 -117 745 -243 770 -257 23 -14 17 -15 -65 -10 -73 3 -102 10 -155 34 -86 40 -258 89 -356 103 -142 19 -182 28 -261 57 -43 17 -103 37 -133 46 -104 30 -355 198 -409 275 -18 26 -20 35 -11 46 17 21 26 19 95 -14z m-803 -390 c23 -47 78 -139 121 -203 77 -114 89 -148 52 -148 -22 0 -109 83 -144 138 -16 26 -37 74 -46 107 -10 33 -28 78 -40 100 -26 45 -40 99 -30 115 12 20 43 -19 87 -109z m4328 -259 c0 -4 -14 -16 -32 -26 -22 -13 -58 -20 -124 -24 -148 -8 -187 14 -77 44 52 14 233 19 233 6z m-3175 -346 c55 -14 168 -47 250 -75 184 -63 305 -88 483 -101 76 -5 205 -15 287 -20 264 -20 877 -115 937 -146 37 -19 32 -33 -23 -64 -39 -22 -55 -25 -149 -25 -85 1 -128 7 -228 33 -67 18 -156 37 -197 42 -41 5 -114 21 -162 35 -49 14 -164 37 -258 51 -260 38 -813 141 -891 165 -85 26 -163 65 -171 84 -6 17 3 45 14 45 4 0 53 -11 108 -24z m-110 -145 c50 -10 125 -32 167 -49 133 -53 436 -121 776 -173 106 -16 209 -36 228 -44 30 -12 35 -19 32 -42 -2 -17 -12 -32 -28 -40 -105 -53 -688 66 -1031 210 -210 89 -274 115 -291 121 -10 3 -18 12 -18 21 0 21 52 20 165 -4z m1826 -355 c118 -21 180 -59 149 -90 -17 -17 -270 -11 -375 7 -119 22 -159 34 -187 56 l-23 19 35 10 c52 15 313 13 401 -2z"
       id="path24"
       style="fill:#ffffff" />
    <path
       d="M8840 9676 c0 -20 94 -104 125 -112 64 -16 42 25 -44 84 -67 45 -81 50 -81 28z"
       id="path26"
       style="fill:#ffffff" />
    <path
       d="M8710 9571 c0 -16 73 -74 119 -94 58 -25 207 -37 178 -14 -10 8 -52 27 -95 42 -42 15 -105 38 -139 51 -35 13 -63 19 -63 15z"
       id="path28"
       style="fill:#ffffff" />
    <path
       d="M8670 9394 c60 -60 154 -112 219 -121 88 -12 25 47 -134 124 -60 29 -117 53 -125 53 -8 0 10 -25 40 -56z"
       id="path30"
       style="fill:#ffffff" />
    <path
       d="M8490 9305 c0 -41 100 -136 167 -159 53 -18 119 -21 128 -5 8 12 -20 35 -55 44 -45 12 -127 55 -171 90 -40 32 -69 44 -69 30z"
       id="path32"
       style="fill:#ffffff" />
    <path
       d="M8360 9190 c0 -74 247 -230 363 -230 33 0 97 33 97 49 0 5 -21 13 -47 17 -109 15 -341 118 -383 168 -17 22 -30 20 -30 -4z"
       id="path34"
       style="fill:#ffffff" />
    <path
       d="M8268 9014 c-4 -3 -1 -19 7 -35 22 -41 18 -58 -12 -70 -23 -9 -25 -12 -12 -24 18 -19 179 -60 294 -76 97 -14 128 -6 147 36 17 38 -2 51 -110 74 -51 11 -128 36 -171 56 -84 38 -132 51 -143 39z"
       id="path36"
       style="fill:#ffffff" />
    <path
       d="M8212 8798 c7 -22 97 -77 151 -93 65 -19 134 -19 194 1 47 16 82 39 72 48 -3 3 -57 8 -120 12 -62 3 -151 14 -197 25 -99 22 -105 23 -100 7z"
       id="path38"
       style="fill:#ffffff" />
    <path
       d="M4640 8743 c-381 -4 -1063 -24 -1193 -34 -73 -5 -150 -15 -172 -21 -39 -10 -39 -11 -15 -20 24 -9 472 -2 1305 22 455 13 874 13 1235 -2 291 -11 404 -7 369 12 -23 13 -195 29 -434 40 -198 9 -536 10 -1095 3z"
       id="path40"
       style="fill:#ffffff" />
    <path
       d="M2225 8670 c-433 -39 -894 -160 -997 -263 -33 -33 -35 -47 -10 -77 26 -33 61 -21 99 34 41 58 94 84 196 97 45 5 141 25 212 44 223 59 355 76 770 100 253 15 315 22 315 35 0 28 -383 48 -585 30z"
       id="path42"
       style="fill:#ffffff" />
    <path
       d="M9247 8603 c-22 -22 16 -37 228 -92 285 -74 436 -132 497 -188 18 -18 37 -25 64 -25 39 0 67 23 58 45 -8 20 -169 105 -257 136 -101 35 -337 95 -461 116 -99 17 -120 18 -129 8z"
       id="path44"
       style="fill:#ffffff" />
    <path
       d="M5260 8583 c-41 -1 -181 -9 -310 -18 -479 -31 -857 -48 -1825 -85 -577 -22 -826 -36 -922 -50 -33 -6 -150 -23 -260 -39 -209 -32 -278 -49 -278 -72 0 -23 169 -14 382 21 238 38 341 46 803 65 584 24 970 48 992 61 5 3 156 10 336 15 180 5 467 16 637 25 314 18 779 23 1135 14 217 -6 253 -1 248 32 -2 14 -13 25 -28 29 -24 7 -748 8 -910 2z"
       id="path46"
       style="fill:#ffffff" />
    <path
       d="M9111 8441 c-29 -19 53 -43 314 -91 94 -17 216 -47 272 -66 55 -18 111 -34 124 -34 22 0 22 0 3 21 -24 27 -64 43 -205 84 -200 58 -479 105 -508 86z"
       id="path48"
       style="fill:#ffffff" />
    <path
       d="M7610 8071 c0 -2 16 -19 36 -37 25 -23 35 -40 32 -56 -3 -19 -11 -24 -58 -30 -84 -12 -100 -17 -100 -33 0 -8 12 -17 28 -21 15 -3 52 -13 82 -21 43 -12 87 -15 205 -10 162 6 237 18 300 49 81 41 95 69 43 87 -57 20 -568 85 -568 72z"
       id="path50"
       style="fill:#ffffff" />
    <path
       d="M9095 7400 c-133 -13 -175 -34 -124 -61 24 -12 391 -8 422 5 24 11 21 42 -5 50 -40 12 -200 15 -293 6z"
       id="path52"
       style="fill:#ffffff" />
    <path
       d="M8000 7369 c-316 -33 -1066 -54 -2880 -80 -410 -6 -775 -14 -812 -18 -62 -6 -100 -22 -86 -37 7 -7 103 -19 267 -34 68 -6 298 -38 510 -71 471 -73 638 -83 1106 -69 597 19 1027 60 1245 119 74 21 141 31 225 36 129 7 259 30 401 70 109 32 222 74 230 86 6 11 -97 10 -206 -2z m-1473 -150 c43 -6 82 -13 87 -16 22 -14 -36 -26 -167 -34 -192 -12 -885 -29 -919 -22 -40 8 -34 29 10 36 100 16 542 40 829 45 45 1 117 -3 160 -9z"
       id="path54"
       style="fill:#ffffff" />
    <path
       d="M9190 7259 c-41 -5 -122 -13 -180 -19 -126 -13 -185 -27 -202 -47 -23 -29 11 -35 167 -28 233 9 364 40 373 88 4 19 -28 21 -158 6z"
       id="path56"
       style="fill:#ffffff" />
    <path
       d="M2453 7173 c-70 -7 -49 -21 30 -21 116 0 202 9 186 19 -14 8 -130 9 -216 2z"
       id="path58"
       style="fill:#ffffff" />
    <path
       d="M7670 7054 c-19 -2 -98 -9 -175 -14 -77 -6 -270 -24 -430 -40 -373 -37 -541 -47 -1090 -65 -247 -8 -469 -18 -492 -21 -71 -10 -49 -48 47 -81 51 -17 96 -18 600 -17 571 0 621 3 815 48 193 44 310 58 548 63 179 4 231 9 240 20 7 7 18 20 24 28 7 7 39 19 70 25 112 22 158 35 158 45 0 10 -238 16 -315 9z"
       id="path60"
       style="fill:#ffffff" />
    <path
       d="M8965 7040 c-164 -22 -191 -28 -206 -46 -10 -12 -9 -18 5 -32 14 -14 36 -17 149 -15 201 2 343 37 335 81 -7 35 -88 38 -283 12z"
       id="path62"
       style="fill:#ffffff" />
    <path
       d="M2350 6995 c-8 -2 -42 -7 -75 -10 -151 -17 104 -46 390 -44 260 2 319 17 149 38 -84 10 -439 23 -464 16z"
       id="path64"
       style="fill:#ffffff" />
    <path
       d="M2505 6810 c-102 -8 -155 -22 -155 -40 0 -5 12 -13 26 -16 31 -8 573 3 622 12 37 7 43 29 10 38 -38 11 -396 15 -503 6z"
       id="path66"
       style="fill:#ffffff" />
    <path
       d="M8845 6806 c-86 -17 -152 -43 -159 -63 -6 -14 8 -15 121 -10 171 7 277 37 246 68 -17 17 -130 20 -208 5z"
       id="path68"
       style="fill:#ffffff" />
    <path
       d="M7215 6700 c-110 -10 -333 -25 -495 -34 -519 -29 -592 -34 -601 -43 -6 -6 6 -17 31 -28 23 -10 48 -31 55 -46 8 -15 25 -29 37 -32 134 -32 551 -4 963 63 268 45 465 99 465 129 0 16 -221 12 -455 -9z"
       id="path70"
       style="fill:#ffffff" />
    <path
       d="M8805 6596 c-130 -27 -205 -60 -205 -91 0 -12 14 -15 73 -15 96 0 262 26 306 48 106 51 -14 91 -174 58z"
       id="path72"
       style="fill:#ffffff" />
    <path
       d="M2645 6544 c-142 -16 -265 -46 -265 -66 0 -18 399 -2 509 21 39 8 50 25 24 36 -21 9 -209 15 -268 9z"
       id="path74"
       style="fill:#ffffff" />
    <path
       d="M8691 6365 c-104 -38 -149 -105 -71 -105 42 0 259 49 292 66 112 58 -80 92 -221 39z"
       id="path76"
       style="fill:#ffffff" />
    <path
       d="M2767 6316 c-59 -16 -64 -21 -36 -37 14 -7 70 -12 143 -13 105 -1 121 1 124 16 2 9 -6 22 -18 28 -34 18 -159 22 -213 6z"
       id="path78"
       style="fill:#ffffff" />
    <path
       d="M6246 6251 c-7 -11 16 -17 144 -33 116 -14 831 -19 864 -5 39 16 -3 29 -125 37 -162 12 -876 13 -883 1z"
       id="path80"
       style="fill:#ffffff" />
    <path
       d="M8668 6130 c-161 -29 -271 -95 -192 -114 53 -14 348 30 406 60 32 16 36 38 11 49 -28 11 -174 15 -225 5z"
       id="path82"
       style="fill:#ffffff" />
    <path
       d="M7085 5995 c-110 -7 -342 -16 -515 -19 -309 -7 -407 -12 -397 -23 16 -15 210 -34 417 -39 392 -11 820 26 820 70 0 29 -20 29 -325 11z"
       id="path84"
       style="fill:#ffffff" />
    <path
       d="M8584 5886 c-119 -27 -204 -76 -191 -111 8 -19 62 -20 187 0 134 21 216 44 236 66 17 19 17 21 1 37 -23 22 -149 27 -233 8z"
       id="path86"
       style="fill:#ffffff" />
    <path
       d="M2744 5846 c-18 -14 -18 -16 -2 -32 30 -31 185 -46 207 -20 15 18 -4 33 -65 52 -60 18 -115 18 -140 0z"
       id="path88"
       style="fill:#ffffff" />
    <path
       d="M8575 5659 c-136 -21 -227 -65 -212 -102 8 -20 62 -22 207 -7 173 18 254 57 197 94 -30 20 -117 27 -192 15z"
       id="path90"
       style="fill:#ffffff" />
    <path
       d="M2802 5569 c-41 -12 -52 -37 -26 -56 25 -19 186 -13 228 8 69 33 28 60 -92 58 -42 0 -92 -5 -110 -10z"
       id="path92"
       style="fill:#ffffff" />
    <path
       d="M8600 5423 c-112 -9 -221 -45 -233 -77 -3 -8 2 -25 12 -37 16 -20 27 -22 102 -22 89 0 194 22 244 51 35 21 45 56 18 70 -21 11 -93 18 -143 15z"
       id="path94"
       style="fill:#ffffff" />
    <path
       d="M6010 5300 c-13 -8 -13 -11 2 -26 15 -15 48 -19 220 -25 304 -11 944 -11 932 1 -13 13 -224 37 -437 50 -221 13 -697 13 -717 0z"
       id="path96"
       style="fill:#ffffff" />
    <path
       d="M2780 5257 c-56 -15 -64 -40 -19 -56 49 -17 225 -26 233 -12 12 18 -4 51 -29 61 -42 16 -139 20 -185 7z"
       id="path98"
       style="fill:#ffffff" />
    <path
       d="M8439 5115 c-57 -18 -88 -49 -73 -73 38 -61 248 -47 269 18 8 27 -1 39 -41 56 -41 17 -95 17 -155 -1z"
       id="path100"
       style="fill:#ffffff" />
    <path
       d="M2848 4958 c-32 -11 -36 -33 -10 -47 27 -14 152 -23 202 -14 97 18 24 74 -95 72 -38 0 -82 -5 -97 -11z"
       id="path102"
       style="fill:#ffffff" />
    <path
       d="M8438 4816 c-73 -11 -130 -38 -130 -61 0 -5 12 -19 26 -30 52 -38 243 -16 309 36 76 59 -16 84 -205 55z"
       id="path104"
       style="fill:#ffffff" />
    <path
       d="M6670 4753 c-586 -30 -798 -57 -697 -87 46 -15 351 -18 567 -7 356 18 602 48 705 86 36 13 15 14 -240 13 -154 -1 -305 -3 -335 -5z"
       id="path106"
       style="fill:#ffffff" />
    <path
       d="M2913 4539 c-51 -12 -72 -33 -46 -47 33 -18 137 -33 268 -39 108 -4 133 -2 150 10 26 20 13 45 -36 69 -28 15 -58 18 -164 17 -71 -1 -149 -5 -172 -10z"
       id="path108"
       style="fill:#ffffff" />
    <path
       d="M8428 4530 c-82 -25 -139 -83 -110 -112 30 -30 187 -16 263 23 50 25 57 48 24 76 -21 19 -37 23 -88 22 -34 0 -74 -4 -89 -9z"
       id="path110"
       style="fill:#ffffff" />
    <path
       d="M8438 4358 c-32 -6 -58 -13 -58 -17 0 -9 46 -43 87 -64 31 -16 202 -51 211 -43 2 3 -11 33 -30 68 l-33 63 -60 1 c-33 1 -86 -3 -117 -8z"
       id="path112"
       style="fill:#ffffff" />
    <path
       d="M7160 4200 c-572 -25 -1270 -93 -1370 -132 -24 -10 -24 -11 -5 -18 11 -5 88 -9 170 -9 253 -1 658 28 1155 85 167 19 355 37 417 41 109 6 137 14 91 27 -44 11 -265 14 -458 6z"
       id="path114"
       style="fill:#ffffff" />
    <path
       d="M8505 4191 c-87 -37 -35 -121 74 -121 71 0 121 22 121 53 0 43 -43 71 -113 74 -34 2 -71 -1 -82 -6z"
       id="path116"
       style="fill:#ffffff" />
    <path
       d="M3060 4042 c0 -13 48 -52 65 -52 6 0 37 -18 68 -41 45 -32 58 -37 63 -25 11 29 -2 60 -39 89 -30 25 -49 32 -97 35 -38 3 -60 1 -60 -6z"
       id="path118"
       style="fill:#ffffff" />
    <path
       d="M8448 4033 c-9 -2 -19 -11 -23 -20 -9 -26 28 -55 78 -60 37 -4 49 -1 66 16 30 30 23 43 -35 58 -51 13 -58 14 -86 6z"
       id="path120"
       style="fill:#ffffff" />
    <path
       d="M8353 3660 c-30 -12 -29 -21 5 -52 35 -33 65 -48 96 -48 42 0 48 62 7 87 -27 17 -83 24 -108 13z"
       id="path122"
       style="fill:#ffffff" />
    <path
       d="M5660 3183 c-14 -3 -31 -10 -38 -16 -32 -26 -1 -30 543 -64 237 -16 484 -27 550 -26 172 4 305 14 305 23 0 29 -601 76 -1080 84 -140 3 -266 2 -280 -1z"
       id="path124"
       style="fill:#ffffff" />
    <path
       d="M8747 2142 c-52 -116 -132 -341 -123 -349 7 -7 129 152 146 191 24 55 44 159 36 191 -10 41 -31 29 -59 -33z"
       id="path126"
       style="fill:#ffffff" />
    <path
       d="M8681 1729 c-52 -26 -70 -30 -106 -25 -51 6 -113 -12 -162 -50 -38 -29 -41 -40 -14 -49 12 -3 21 -20 27 -47 15 -68 33 -70 99 -9 32 28 102 83 156 122 54 38 101 74 104 79 13 21 -44 9 -104 -21z"
       id="path128"
       style="fill:#ffffff" />
    <path
       d="M8714 1532 c-79 -69 -134 -131 -134 -152 0 -19 41 10 113 79 65 62 114 127 105 137 -3 2 -41 -27 -84 -64z"
       id="path130"
       style="fill:#ffffff" />
    <path
       d="M8620 884 c-41 -18 -81 -34 -88 -34 -7 0 -64 -22 -125 -49 -62 -27 -144 -59 -184 -70 -39 -12 -124 -44 -188 -71 -281 -121 -711 -225 -1132 -275 -229 -26 -353 -49 -393 -70 l-25 -14 33 -1 c49 0 415 38 622 66 282 37 462 71 573 109 56 18 167 54 247 80 258 84 449 165 606 258 178 106 203 138 54 71z"
       id="path132"
       style="fill:#ffffff" />
  </g>
</svg>
